<mxfile host="app.diagrams.net" modified="2023-10-30T22:09:32.444Z" agent="Mozilla/5.0 (Windows NT 10.0; Win64; x64) AppleWebKit/537.36 (KHTML, like Gecko) Chrome/118.0.0.0 Safari/537.36" version="22.0.8" etag="MnQhH3qhjhb0M14ba5wD" type="github">
  <diagram name="Page-1" id="qHGo4dPFZY78BKj_cfdb">
    <mxGraphModel>
      <root>
        <mxCell id="0" />
        <mxCell id="1" parent="0" />
      </root>
    </mxGraphModel>
  </diagram>
</mxfile>
